<svg width="60" height="65" viewBox="0 0 60 65" fill="none" xmlns="http://www.w3.org/2000/svg">
<path d="M59.2916 24.9892C59.3554 21.8846 58.9734 18.7868 58.1573 15.7907C57.0625 12.0667 54.7903 8.79779 51.6812 6.47399C45.5657 1.68241 39.8501 -0.303343 33.1681 0.0357404C29.6433 0.279844 26.141 0.780588 22.689 1.53399C17.8021 2.51657 14.252 4.23474 11.8351 6.78707C9.91974 8.82666 8.44079 11.2357 7.48875 13.8667C7.08521 15.0259 6.75664 16.2099 6.50508 17.4113L6.41842 17.7862C6.19024 18.63 5.88227 19.4501 5.49867 20.2356C5.2755 20.7361 5.05125 21.2366 4.85733 21.7522C4.60618 22.3244 4.50585 22.9514 4.56592 23.5733C4.78633 24.5411 5.3473 25.3973 6.1465 25.9859C6.67842 26.4734 7.02725 26.8147 7.0305 27.1267C6.98814 27.2883 6.92438 27.4435 6.84092 27.5882C5.54357 30.3236 3.95332 32.9102 2.09808 35.3026C1.32025 36.2527 0.505583 37.3609 0.671333 38.4865C0.908095 39.3407 1.47214 40.0671 2.24108 40.508C2.59954 40.7548 2.97742 40.9722 3.371 41.158C3.83792 41.3963 4.62117 41.795 4.671 42.0821C4.74121 42.4469 4.70007 42.8243 4.55292 43.1654C4.3915 43.5034 4.22792 43.7959 4.08167 44.0505C3.68408 44.7536 3.01783 45.9322 4.01992 46.7751C4.25392 46.9809 4.65475 47.2962 5.02092 47.5767C4.75036 48.0526 4.62884 48.5987 4.67208 49.1443C4.73088 49.5684 4.96165 49.9497 5.31017 50.1984C5.55283 50.3707 5.81175 50.5234 6.0685 50.6664C6.7055 51.0293 6.95358 51.1994 7.0435 51.5331C7.10195 51.9744 7.062 52.4231 6.9265 52.8472C6.86367 53.1321 6.803 53.4159 6.76508 53.6997C6.65531 54.6851 6.77965 55.6824 7.128 56.6107C7.68818 58.6696 9.76313 59.9287 11.8481 59.475C14.9414 58.7291 17.9922 57.8167 20.9871 56.7417C23.4224 58.1804 24.9618 62.5322 25.3627 64.1647C25.4814 64.6493 25.9157 64.9901 26.4146 64.9902L53.6062 64.9155C53.9492 64.9144 54.2714 64.751 54.4749 64.4749C54.6784 64.1988 54.7392 63.8427 54.6387 63.5148C54.3701 62.7754 53.9984 62.0777 53.5347 61.4423C53.2787 61.0748 53.0471 60.6908 52.8414 60.2929C52.353 59.2937 51.9437 58.2578 51.6172 57.1946C50.9989 55.102 50.5718 52.9576 50.3411 50.7877C49.9572 47.5483 50.4464 44.2651 51.7581 41.2782C52.5599 39.6244 53.5466 38.0667 54.6993 36.6351C55.3493 35.7543 56.0286 34.8443 56.6374 33.8834C58.347 31.2301 59.2675 28.1456 59.2916 24.9892ZM52.9606 35.3535C51.709 36.9161 50.6397 38.6164 49.7734 40.4213C48.3075 43.7623 47.7614 47.4345 48.1917 51.0575C48.4343 53.3559 48.8861 55.6273 49.5416 57.8435C49.9007 59.0111 50.3498 60.1492 50.8849 61.2473C51.1313 61.7319 51.4104 62.1992 51.7202 62.6459L51.7982 62.764L27.2336 62.8333C26.512 60.2627 25.2049 57.894 23.4148 55.913C23.6911 55.8166 23.9565 55.7267 24.1959 55.64C25.0171 55.3529 25.6378 55.1352 25.9477 55.0377C30.5919 53.5795 32.9146 51.4692 32.8517 48.7641C32.8166 48.175 32.3325 47.7131 31.7424 47.7057C31.4551 47.7125 31.1822 47.8332 30.9839 48.0413C30.7856 48.2493 30.6781 48.5277 30.6851 48.815C30.7111 49.9308 29.7978 51.558 25.2966 52.9707C24.9716 53.0725 24.3313 53.2957 23.4787 53.5957C22.7063 53.8666 21.7584 54.1981 20.7217 54.5523C17.67 55.656 14.5611 56.5941 11.4082 57.3625C10.3932 57.5581 9.4053 56.9158 9.17225 55.9087C8.93831 55.3005 8.84893 54.6463 8.91117 53.9977C8.94042 53.7734 8.99133 53.5492 9.04117 53.3238C9.26344 52.572 9.29841 51.7772 9.143 51.0087C8.83201 50.0141 8.10246 49.2046 7.14533 48.7922L6.9135 48.659C7.02951 48.4224 7.16849 48.1978 7.32842 47.9884C7.50864 47.7583 7.5882 47.465 7.54903 47.1754C7.50986 46.8857 7.35529 46.6241 7.12042 46.4501C6.86042 46.2572 6.24075 45.7936 5.79658 45.4372C5.85183 45.3364 5.91358 45.2205 5.971 45.1241C6.13783 44.8305 6.32742 44.4914 6.51267 44.1047C6.85915 43.3471 6.96101 42.5004 6.80408 41.6823C6.55167 40.3531 5.28742 39.7052 4.35467 39.2329C4.04019 39.0839 3.7387 38.9088 3.45333 38.7097C3.22879 38.5534 3.01589 38.3811 2.81633 38.194C2.81633 38.0315 2.98967 37.635 3.82275 36.6177C5.75839 34.122 7.41799 31.4239 8.7725 28.5707C9.03333 28.1241 9.17925 27.6197 9.19717 27.1028C9.08673 26.0123 8.50746 25.0238 7.61008 24.3945C7.17675 23.9937 6.75858 23.6145 6.712 23.2808C6.7163 23.0187 6.77534 22.7604 6.88533 22.5225C7.063 22.0523 7.26992 21.5908 7.47683 21.1293C7.91846 20.218 8.27074 19.266 8.52875 18.2867L8.6165 17.9086C8.84784 16.7965 9.15035 15.7005 9.52217 14.6272C10.3713 12.2677 11.6937 10.1067 13.4081 8.27666C15.5065 6.06666 18.6828 4.54999 23.1158 3.65841C26.4634 2.92579 29.86 2.43844 33.2786 2.20024C39.4081 1.87524 44.6698 3.73207 50.3422 8.18241C53.0984 10.2145 55.1108 13.0959 56.0697 16.3832C56.8298 19.1763 57.1851 22.0639 57.1249 24.9578C57.1059 27.7176 56.3022 30.415 54.8077 32.7351C54.24 33.6256 53.5878 34.5042 52.9573 35.3535H52.9606Z" fill="#2F80ED"/>
<path d="M22.4583 18.4167H23.5416C24.1399 18.4167 24.6249 17.9316 24.6249 17.3333C24.6249 16.735 24.1399 16.25 23.5416 16.25H22.4583C20.6633 16.25 19.2083 17.7051 19.2083 19.5V20.5833C19.2083 22.3782 20.6633 23.8333 22.4583 23.8333H23.5416C24.1399 23.8333 24.6249 23.3483 24.6249 22.75C24.6249 22.1517 24.1399 21.6667 23.5416 21.6667H22.4583C21.8599 21.6667 21.3749 21.1816 21.3749 20.5833V19.5C21.3749 18.9017 21.8599 18.4167 22.4583 18.4167Z" fill="#2F80ED"/>
<path d="M30.0416 15.1667C29.4433 15.1667 28.9583 15.6517 28.9583 16.25V18.4167C28.9583 19.015 28.4732 19.5 27.8749 19.5H26.7916C26.1933 19.5 25.7083 19.985 25.7083 20.5833C25.7083 21.1816 26.1933 21.6667 26.7916 21.6667H27.8749C29.6699 21.6667 31.1249 20.2116 31.1249 18.4167V16.25C31.1249 15.6517 30.6399 15.1667 30.0416 15.1667Z" fill="#2F80ED"/>
<path d="M34.3749 15.1667V14.0833C34.3749 12.2884 32.9199 10.8333 31.1249 10.8333H28.9583C27.1633 10.8333 25.7083 12.2884 25.7083 14.0833V15.1667C25.7083 15.765 26.1933 16.25 26.7916 16.25C27.3899 16.25 27.8749 15.765 27.8749 15.1667V14.0833C27.8749 13.485 28.3599 13 28.9583 13H31.1249C31.7232 13 32.2083 13.485 32.2083 14.0833V15.1667C32.2083 15.765 32.6933 16.25 33.2916 16.25C33.8899 16.25 34.3749 15.765 34.3749 15.1667Z" fill="#2F80ED"/>
<path d="M37.6248 22.75H36.5415C35.9432 22.75 35.4582 22.265 35.4582 21.6667V20.5833C35.4582 19.985 34.9731 19.5 34.3748 19.5C33.7765 19.5 33.2915 19.985 33.2915 20.5833V21.6667C33.2915 23.4616 34.7466 24.9167 36.5415 24.9167H37.6248C38.2232 24.9167 38.7082 24.4316 38.7082 23.8333C38.7082 23.235 38.2232 22.75 37.6248 22.75Z" fill="#2F80ED"/>
<path d="M43.0417 19.5C43.0417 18.9017 42.5567 18.4167 41.9583 18.4167H40.875C40.2767 18.4167 39.7917 17.9316 39.7917 17.3333C39.7917 16.735 40.2767 16.25 40.875 16.25H41.9583C42.5567 16.25 43.0417 15.765 43.0417 15.1667C43.0417 14.5683 42.5567 14.0833 41.9583 14.0833H40.875C39.0801 14.0833 37.625 15.5384 37.625 17.3333C37.625 19.1283 39.0801 20.5833 40.875 20.5833H41.9583C42.5567 20.5833 43.0417 20.0983 43.0417 19.5Z" fill="#2F80ED"/>
<path d="M46.2916 19.5C45.6933 19.5 45.2083 19.985 45.2083 20.5833V22.75C45.2083 23.3483 44.7232 23.8333 44.1249 23.8333H43.0416C42.4433 23.8333 41.9583 24.3183 41.9583 24.9167C41.9583 25.515 42.4433 26 43.0416 26H44.1249C45.9199 26 47.3749 24.5449 47.3749 22.75V20.5833C47.3749 19.985 46.8899 19.5 46.2916 19.5Z" fill="#2F80ED"/>
<path d="M54.9149 22.75C54.9149 22.7327 54.9062 22.7186 54.9051 22.7012C54.808 20.7654 54.4999 18.8459 53.9864 16.9769C53.1491 14.1338 51.4009 11.6445 49.0107 9.8919C44.1108 6.04824 39.668 4.33332 34.6013 4.33332C34.2026 4.33332 33.7996 4.34415 33.3869 4.36365C33.0174 4.38315 32.648 4.4254 32.2786 4.45574C32.2537 4.45574 32.2331 4.44165 32.2082 4.44165C32.1513 4.44793 32.0952 4.45917 32.0403 4.47524C29.185 4.75065 26.3475 5.1872 23.5415 5.78282C22.3109 6.02519 21.1 6.3587 19.9189 6.78057C19.8939 6.79032 19.869 6.79574 19.8452 6.80657C18.0188 7.40736 16.3552 8.42042 14.9832 9.76732C13.655 11.1937 12.5971 12.8496 11.861 14.6542C11.8278 14.7154 11.8006 14.7796 11.7798 14.846C11.7072 15.0237 11.6238 15.1916 11.5566 15.3725C11.224 16.2749 10.7008 18.5217 10.6347 18.8045C10.3909 20.0167 9.78643 24.1713 12.2445 26.7778C13.8045 28.431 16.19 29.042 19.323 28.5978L20.7812 28.3898C27.7318 27.3899 31.2202 26.8883 34.2221 29.8242C34.7995 30.3886 35.391 30.9649 36.0064 31.525C35.3249 33.6678 34.4409 38.2417 38.0647 40.95C41.9582 43.875 41.9582 44.6669 41.9582 46.5833C41.9561 46.9598 42.1497 47.3103 42.4693 47.5092C42.789 47.708 43.189 47.7266 43.5258 47.5583C43.8096 47.411 46.2915 46.0287 46.2915 41.1667C46.2915 38.5071 48.274 36.2082 50.2316 34.3059L50.2641 34.2767C51.3256 33.548 52.2438 32.6299 52.9724 31.5683C53.7584 30.3294 54.3205 28.962 54.6332 27.5286C54.6972 27.3889 54.7305 27.237 54.7307 27.0833C54.8668 26.3727 54.9429 25.6519 54.9582 24.9286C54.969 24.2017 54.9528 23.4812 54.9138 22.7695C54.9146 22.763 54.915 22.7565 54.9149 22.75ZM44.1249 41.1667C44.1432 42.0677 44.0144 42.9656 43.7435 43.8252C43.2376 42.5587 42.0654 41.2468 39.3582 39.2156C37.2056 37.6036 37.3573 34.9234 37.822 33.0406C39.8517 34.6698 42.3695 35.5705 44.972 35.5983C45.3941 35.5952 45.8157 35.5706 46.2352 35.5247C44.9335 37.1238 44.1922 39.1058 44.1249 41.1667ZM51.1449 30.4135C50.3867 31.5499 49.3143 32.4412 48.0584 32.9788C46.0702 33.6189 43.9265 33.5869 41.9582 32.8878V31.4167C41.9582 30.8183 42.4432 30.3333 43.0415 30.3333H46.2915C46.8898 30.3333 47.3749 29.8483 47.3749 29.25C47.3749 28.6517 46.8898 28.1667 46.2915 28.1667H43.0415C41.2466 28.1667 39.7915 29.6217 39.7915 31.4167V31.7536C38.3365 30.7199 36.9785 29.5559 35.7344 28.2761C34.4767 27.0012 32.875 26.12 31.1249 25.74V24.9167C31.1249 24.3183 30.6398 23.8333 30.0415 23.8333C29.4432 23.8333 28.9582 24.3183 28.9582 24.9167V25.4757C26.1117 25.4814 23.2713 25.7391 20.4703 26.2459L19.0164 26.4528C18.3628 26.5491 17.7016 26.5832 17.0415 26.5547V26C17.0415 25.4017 16.5565 24.9167 15.9582 24.9167C15.3599 24.9167 14.8749 25.4017 14.8749 26V26.052C14.4793 25.865 14.1207 25.6081 13.8164 25.2937C13.1955 24.5754 12.7983 23.6912 12.6735 22.75H13.7915C15.5864 22.75 17.0415 21.2949 17.0415 19.5C17.0415 18.9017 16.5565 18.4167 15.9582 18.4167C15.3599 18.4167 14.8749 18.9017 14.8749 19.5C14.8749 20.0983 14.3898 20.5833 13.7915 20.5833H12.5771C12.6066 20.1399 12.6641 19.6989 12.7494 19.2627C12.8913 18.6474 13.291 16.9877 13.5434 16.25H17.0415C17.6398 16.25 18.1249 15.765 18.1249 15.1667C18.1249 14.5683 17.6398 14.0833 17.0415 14.0833H14.5304C15.0797 13.0578 15.7595 12.1077 16.5529 11.2569C17.32 10.4889 18.2196 9.8657 19.2082 9.4174V10.8333C19.2082 12.6282 20.6633 14.0833 22.4582 14.0833C23.0565 14.0833 23.5415 13.5983 23.5415 13C23.5415 12.4017 23.0565 11.9167 22.4582 11.9167C21.8599 11.9167 21.3749 11.4316 21.3749 10.8333V8.56915C22.2291 8.30259 23.097 8.082 23.9749 7.90832C24.8979 7.72199 25.8425 7.54324 26.7915 7.37315V7.58332C26.7915 8.18163 27.2765 8.66665 27.8749 8.66665C28.4732 8.66665 28.9582 8.18163 28.9582 7.58332V7.0124C29.6797 6.90407 30.4023 6.8044 31.1249 6.72532V7.58332C31.1249 8.18163 31.6099 8.66665 32.2082 8.66665C32.8065 8.66665 33.2915 8.18163 33.2915 7.58332V6.54549C33.3598 6.54549 33.4291 6.53249 33.4963 6.52815C34.1658 6.49999 34.8169 6.49999 35.4582 6.52707V10.8333C35.4582 11.4316 35.9432 11.9167 36.5415 11.9167H38.7082C39.3065 11.9167 39.7915 11.4316 39.7915 10.8333C39.7915 10.235 39.3065 9.74999 38.7082 9.74999H37.6249V6.76324C39.5203 7.08446 41.3532 7.70309 43.0556 8.59624C43.0556 8.62116 43.0415 8.64174 43.0415 8.66665V11.9167C43.0415 12.515 43.5265 13 44.1249 13C44.7232 13 45.2082 12.515 45.2082 11.9167V9.84749C45.9189 10.3079 46.6382 10.8106 47.3749 11.3772V14.0833C47.3749 14.6816 46.8898 15.1667 46.2915 15.1667C45.6932 15.1667 45.2082 15.6517 45.2082 16.25C45.2082 16.8483 45.6932 17.3333 46.2915 17.3333C48.0864 17.3333 49.5415 15.8782 49.5415 14.0833V13.3412C50.6425 14.5495 51.4503 15.9953 51.9021 17.5662C52.2694 18.9085 52.5174 20.2807 52.6431 21.6667H50.6249C50.0265 21.6667 49.5415 22.1517 49.5415 22.75C49.5415 23.3483 50.0265 23.8333 50.6249 23.8333H52.7688C52.7764 24.1876 52.7937 24.5397 52.7883 24.8972C52.7829 25.2742 52.7417 25.6371 52.7005 26H50.6249C50.0265 26 49.5415 26.485 49.5415 27.0833C49.5415 27.6816 50.0265 28.1667 50.6249 28.1667H52.2109C51.945 28.9549 51.5872 29.709 51.1449 30.4135Z" fill="#2F80ED"/>
</svg>
