<svg width="251" height="58" viewBox="0 0 251 58" fill="none" xmlns="http://www.w3.org/2000/svg">
<path d="M74.9 16.5C74.825 12.525 71.8 10.825 68.05 10.825C63.9 10.825 61.2 12.925 61.2 16.15C61.2 19.775 63.975 20.5 66.875 21.325C70.55 22.375 71.75 22.625 71.75 24.025C71.75 25.5 70.5 26.4 68.45 26.4C66.075 26.4 64.5 25.45 64.425 23.05H60.55C60.6 27.075 63.45 29.4 68.275 29.4C71.9 29.4 75.6 27.85 75.6 23.65C75.6 20.675 73.575 19.45 70.4 18.55C66.85 17.55 64.95 17.425 64.95 15.875C64.95 14.6 66.025 13.85 67.825 13.85C69.9 13.85 71.05 14.775 71.2 16.5H74.9ZM93.1104 11.2H89.2104V21.85C89.2104 24.475 88.5854 26.125 85.5854 26.125C82.5354 26.125 81.7604 24.575 81.7604 21.85V11.2H77.8604V21.85C77.8604 26.925 80.2354 29.35 85.5354 29.35C90.7354 29.35 93.1104 26.975 93.1104 21.9V11.2ZM96.5156 11.2V29H100.391V22.6H104.391C107.966 22.6 110.716 20.8 110.716 16.925C110.716 13 108.041 11.2 104.191 11.2H96.5156ZM100.391 14.4H103.891C105.616 14.4 106.916 15.075 106.916 16.975C106.916 18.95 105.616 19.525 103.866 19.525H100.391V14.4ZM126.515 11.2H113.165V29H126.69V25.725H117.04V21.35H125.74V18.275H117.04V14.4H126.515V11.2ZM129.526 11.2V29H133.401V22.025H136.876C139.426 22.025 140.176 22.9 140.426 25.35C140.526 26.325 140.526 28.1 140.976 29H145.026C144.326 28.35 144.276 25.9 144.176 24.775C144.026 23.025 143.526 21.025 141.551 20.625C143.326 19.95 144.376 18.325 144.376 16.25C144.376 12.675 141.651 11.2 138.376 11.2H129.526ZM133.401 14.275H137.276C138.926 14.275 140.551 14.625 140.551 16.675C140.551 18.875 138.926 19.2 137.101 19.2H133.401V14.275ZM163.318 22.125H159.443C159.118 24.725 157.718 26.125 155.368 26.125C152.493 26.125 150.668 23.775 150.668 20.1C150.668 17.125 151.993 14.05 155.418 14.05C157.518 14.05 158.968 15.2 159.368 17.15H163.193C162.893 13.475 159.768 10.775 155.493 10.775C150.043 10.775 146.743 14.9 146.743 20.075C146.743 25.7 150.168 29.425 155.343 29.425C160.218 29.425 162.918 26.475 163.318 22.125ZM178.549 25.65H169.849V11.2H165.949V29H178.549V25.65ZM184.693 11.2H180.768V29H184.693V11.2ZM188.141 29H191.916V17.05L199.291 29H203.191V11.2H199.441V23.125L192.116 11.2H188.141V29ZM210.596 11.2H206.671V29H210.596V11.2ZM229.944 22.125H226.069C225.744 24.725 224.344 26.125 221.994 26.125C219.119 26.125 217.294 23.775 217.294 20.1C217.294 17.125 218.619 14.05 222.044 14.05C224.144 14.05 225.594 15.2 225.994 17.15H229.819C229.519 13.475 226.394 10.775 222.119 10.775C216.669 10.775 213.369 14.9 213.369 20.075C213.369 25.7 216.794 29.425 221.969 29.425C226.844 29.425 229.544 26.475 229.944 22.125Z" fill="#2F80ED"/>
<path d="M67.584 35.456H66.768V39.176H61.668V35.456H60.852V44H61.668V39.872H66.768V44H67.584V35.456ZM72.6972 35.432H71.7972L68.3412 44H69.2172L70.2612 41.312H74.1732L75.2052 44H76.1052L72.6972 35.432ZM73.9212 40.652H70.5132L72.2412 36.2L73.9212 40.652ZM84.0598 40.724H83.2558C83.0758 42.32 82.1278 43.496 80.4118 43.496C78.5158 43.496 77.2798 42.008 77.2798 39.74C77.2798 37.472 78.5398 35.96 80.4358 35.96C81.8278 35.96 82.8718 36.752 83.1358 38.024H83.9518C83.7598 36.284 82.1038 35.252 80.4598 35.252C77.8678 35.252 76.4758 37.34 76.4758 39.74C76.4758 42.44 78.0238 44.192 80.3878 44.192C82.4398 44.192 83.8798 42.836 84.0598 40.724ZM88.897 35.252C86.497 35.252 84.877 37.064 84.877 39.728C84.877 42.404 86.485 44.204 88.885 44.204C91.297 44.204 92.929 42.416 92.929 39.752C92.929 37.076 91.285 35.252 88.897 35.252ZM88.885 35.96C90.817 35.96 92.113 37.484 92.113 39.74C92.113 41.996 90.829 43.496 88.897 43.496C86.965 43.496 85.693 41.996 85.693 39.704C85.693 37.472 86.977 35.96 88.885 35.96ZM100.235 44V35.456H95.2066L95.0386 40.7C94.9666 42.884 94.6066 43.484 93.9946 43.484C93.7546 43.484 93.3106 43.436 93.1546 43.34V44.012C93.3706 44.108 93.6826 44.18 94.0186 44.18C95.3146 44.18 95.7706 42.896 95.8186 41.18L95.9746 36.152H99.4186V44H100.235ZM105.503 35.252C103.103 35.252 101.483 37.064 101.483 39.728C101.483 42.404 103.091 44.204 105.491 44.204C107.903 44.204 109.535 42.416 109.535 39.752C109.535 37.076 107.891 35.252 105.503 35.252ZM105.491 35.96C107.423 35.96 108.719 37.484 108.719 39.74C108.719 41.996 107.435 43.496 105.503 43.496C103.571 43.496 102.299 41.996 102.299 39.704C102.299 37.472 103.583 35.96 105.491 35.96ZM118.074 46.304V43.304H117.174V35.456H111.87V35.948C111.87 37.964 111.93 40.808 110.598 43.304H109.818V46.304H110.634V44H117.258V46.304H118.074ZM116.358 43.304H111.462C112.698 40.976 112.686 38.216 112.686 36.308V36.152H116.358V43.304ZM119.059 44H120.115L124.963 36.332V44H125.779V35.456H124.723L119.875 43.124V35.456H119.059V44ZM134.697 40.724H133.893C133.713 42.32 132.765 43.496 131.049 43.496C129.153 43.496 127.917 42.008 127.917 39.74C127.917 37.472 129.177 35.96 131.073 35.96C132.465 35.96 133.509 36.752 133.773 38.024H134.589C134.397 36.284 132.741 35.252 131.097 35.252C128.505 35.252 127.113 37.34 127.113 39.74C127.113 42.44 128.661 44.192 131.025 44.192C133.077 44.192 134.517 42.836 134.697 40.724ZM142.306 41.528C142.306 40.016 141.334 39.056 139.762 39.056H136.774V35.456H135.958V44H139.762C141.334 44 142.306 43.04 142.306 41.528ZM141.49 41.528C141.49 42.632 140.782 43.304 139.582 43.304H136.774V39.752H139.582C140.782 39.752 141.49 40.424 141.49 41.528ZM154.044 40.724H153.24C153.06 42.32 152.112 43.496 150.396 43.496C148.5 43.496 147.264 42.008 147.264 39.74C147.264 37.472 148.524 35.96 150.42 35.96C151.812 35.96 152.856 36.752 153.12 38.024H153.936C153.744 36.284 152.088 35.252 150.444 35.252C147.852 35.252 146.46 37.34 146.46 39.74C146.46 42.44 148.008 44.192 150.372 44.192C152.424 44.192 153.864 42.836 154.044 40.724ZM155.305 35.456V44H159.085C160.657 44 161.977 43.208 161.977 41.552C161.977 40.244 161.113 39.656 160.165 39.476C160.969 39.296 161.641 38.528 161.641 37.592C161.641 36.068 160.369 35.456 158.965 35.456H155.305ZM156.097 36.152H158.593C159.685 36.152 160.837 36.356 160.837 37.7C160.837 38.888 159.781 39.236 158.809 39.236H156.097V36.152ZM156.097 39.896H158.605C159.769 39.896 161.161 40.1 161.161 41.564C161.161 43.088 159.841 43.304 158.653 43.304H156.097V39.896ZM166.885 35.252C164.485 35.252 162.865 37.064 162.865 39.728C162.865 42.404 164.473 44.204 166.873 44.204C169.285 44.204 170.917 42.416 170.917 39.752C170.917 37.076 169.273 35.252 166.885 35.252ZM166.873 35.96C168.805 35.96 170.101 37.484 170.101 39.74C170.101 41.996 168.817 43.496 166.885 43.496C164.953 43.496 163.681 41.996 163.681 39.704C163.681 37.472 164.965 35.96 166.873 35.96ZM178.792 41.528C178.792 40.016 177.82 39.056 176.248 39.056H173.02V36.152H178.12V35.456H172.204V44H176.248C177.82 44 178.792 43.04 178.792 41.528ZM177.976 41.528C177.976 42.632 177.268 43.304 176.068 43.304H173.02V39.752H176.068C177.268 39.752 177.976 40.424 177.976 41.528ZM183.784 35.252C181.384 35.252 179.764 37.064 179.764 39.728C179.764 42.404 181.372 44.204 183.772 44.204C186.184 44.204 187.816 42.416 187.816 39.752C187.816 37.076 186.172 35.252 183.784 35.252ZM183.772 35.96C185.704 35.96 187 37.484 187 39.74C187 41.996 185.716 43.496 183.784 43.496C181.852 43.496 180.58 41.996 180.58 39.704C180.58 37.472 181.864 35.96 183.772 35.96ZM196.355 46.304V43.304H195.455V35.456H190.151V35.948C190.151 37.964 190.211 40.808 188.879 43.304H188.099V46.304H188.915V44H195.539V46.304H196.355ZM194.639 43.304H189.743C190.979 40.976 190.967 38.216 190.967 36.308V36.152H194.639V43.304ZM200.917 35.252C198.517 35.252 196.897 37.064 196.897 39.728C196.897 42.404 198.505 44.204 200.905 44.204C203.317 44.204 204.949 42.416 204.949 39.752C204.949 37.076 203.305 35.252 200.917 35.252ZM200.905 35.96C202.837 35.96 204.133 37.484 204.133 39.74C204.133 41.996 202.849 43.496 200.917 43.496C198.985 43.496 197.713 41.996 197.713 39.704C197.713 37.472 198.997 35.96 200.905 35.96ZM212.919 35.252C210.687 35.252 209.127 36.812 208.923 39.176H207.027V35.456H206.211V44H207.027V39.872H208.899C208.959 42.464 210.555 44.204 212.907 44.204C215.319 44.204 216.951 42.416 216.951 39.752C216.951 37.076 215.307 35.252 212.919 35.252ZM212.907 35.96C214.839 35.96 216.135 37.484 216.135 39.74C216.135 41.996 214.851 43.496 212.919 43.496C210.987 43.496 209.715 41.996 209.715 39.704C209.715 37.472 210.999 35.96 212.907 35.96ZM221.611 35.456V44H222.427V40.352H225.247C226.867 40.352 227.959 39.524 227.959 37.856C227.959 36.26 226.867 35.456 225.271 35.456H221.611ZM222.427 36.152H225.103C226.327 36.152 227.143 36.692 227.143 37.916C227.143 39.188 226.195 39.668 225.019 39.668H222.427V36.152ZM228.186 35.456L231.402 42.08L231.294 42.308C231.006 42.908 230.622 43.484 230.022 43.484C229.494 43.484 229.218 43.364 229.062 43.268V43.964C229.302 44.072 229.566 44.18 229.95 44.18C230.79 44.18 231.378 43.976 232.086 42.512L235.494 35.456H234.63L231.858 41.156L229.062 35.456H228.186ZM242.211 35.456H241.311L239.355 38.18C239.187 38.468 238.995 38.768 238.803 39.044C238.623 38.768 238.467 38.468 238.275 38.192L236.367 35.456H235.407L238.323 39.608L235.215 44H236.151L238.311 40.928C238.443 40.736 238.659 40.352 238.803 40.208C239.019 40.544 238.827 40.316 239.259 40.94L241.395 44H242.379L239.295 39.608L242.211 35.456ZM242.189 35.456L245.405 42.08L245.297 42.308C245.009 42.908 244.625 43.484 244.025 43.484C243.497 43.484 243.221 43.364 243.065 43.268V43.964C243.305 44.072 243.569 44.18 243.953 44.18C244.793 44.18 245.381 43.976 246.089 42.512L249.497 35.456H248.633L245.861 41.156L243.065 35.456H242.189Z" fill="#219653"/>
<path d="M23.763 23.0328C23.763 23.0328 29.6996 24.6671 35.2202 22.7287C43.5767 19.7641 49.3998 13.5308 51.7819 10.6422L51.2904 9.76802C50.7232 8.77982 49.4754 8.43775 48.4923 9.00786L36.5058 15.9253V2.05242C36.5058 0.912189 35.5983 0 34.4639 0H23.5362C22.4018 0 21.4943 0.912189 21.4943 2.05242V15.9253L9.50781 9.00786C8.52469 8.43775 7.27688 8.77982 6.7097 9.76802L6.21814 10.6422C8.67594 13.6828 14.8393 20.2962 23.763 23.0328ZM28.9811 12.7706C31.2121 12.7706 33.0271 14.595 33.0271 16.8375C33.0271 19.0799 31.2121 20.9043 28.9811 20.9043C26.7502 20.9043 24.9352 19.0799 24.9352 16.8375C24.9352 14.595 26.7502 12.7706 28.9811 12.7706Z" fill="#219653"/>
<path d="M55.979 35.8794L44.0682 29L55.979 22.1206C56.9621 21.5505 57.3025 20.2962 56.7353 19.308L54.4287 15.2792C47.8116 17.9017 25.6536 29 31.5901 58H34.4638C35.5982 58 36.5057 57.0878 36.5057 55.9476V42.0747L48.4544 48.9921C49.4375 49.5623 50.6853 49.2202 51.2525 48.232L56.6975 38.692C57.3025 37.7038 56.9621 36.4496 55.979 35.8794Z" fill="#2F80ED"/>
<path d="M3.57122 15.2792L1.26467 19.27C0.697482 20.2582 1.03779 21.5125 2.02091 22.0826L13.9318 28.962L2.02091 35.8794C1.03779 36.4496 0.697482 37.7038 1.26467 38.692L6.70964 48.194C7.27682 49.1822 8.52462 49.5243 9.50774 48.9541L21.4564 42.0367V55.9096C21.4564 57.0498 22.3639 57.962 23.4983 57.962H26.372C32.3464 29 10.1884 17.9017 3.57122 15.2792Z" fill="#2F80ED"/>
<path d="M35.9386 25.2753C35.9008 25.1992 35.8251 25.1992 35.7495 25.1992C28.3761 27.4037 22.3262 25.2372 22.2883 25.1992C22.2127 25.1612 22.1371 25.1992 22.0993 25.2753C22.0615 25.3513 22.0615 25.4273 22.0993 25.5033C22.1749 25.5793 28.3383 35.0053 28.8677 40.0983C28.8677 40.1743 28.9433 40.2503 29.0567 40.2503C29.1324 40.2503 29.2458 40.1743 29.2458 40.0983C29.6995 34.9673 35.863 25.5793 35.9386 25.5033C35.9764 25.4273 35.9764 25.3513 35.9386 25.2753Z" fill="url(#paint0_linear)"/>
<defs>
<linearGradient id="paint0_linear" x1="28.9968" y1="29.4527" x2="28.9968" y2="43.9961" gradientUnits="userSpaceOnUse">
<stop stop-color="#6ADBA7"/>
<stop offset="0.9868" stop-color="#3DB3C1"/>
</linearGradient>
</defs>
</svg>
