<svg width="45" height="44" viewBox="0 0 45 44" fill="none" xmlns="http://www.w3.org/2000/svg">
<path d="M44.9149 18.75C44.9149 18.7327 44.9062 18.7186 44.9051 18.7012C44.808 16.7654 44.4999 14.8459 43.9864 12.9769C43.1491 10.1338 41.4009 7.6445 39.0107 5.8919C34.1108 2.04824 29.668 0.333321 24.6013 0.333321C24.2026 0.333321 23.7996 0.344154 23.3869 0.363654C23.0174 0.383154 22.648 0.425404 22.2786 0.455737C22.2537 0.455737 22.2331 0.441654 22.2082 0.441654C22.1513 0.447929 22.0952 0.459167 22.0403 0.475237C19.185 0.750648 16.3475 1.1872 13.5415 1.78282C12.3109 2.02519 11.1 2.3587 9.91885 2.78057C9.89393 2.79032 9.86902 2.79574 9.84518 2.80657C8.01881 3.40736 6.35521 4.42042 4.98318 5.76732C3.65503 7.19372 2.59712 8.84959 1.86102 10.6542C1.82778 10.7154 1.80057 10.7796 1.77977 10.846C1.70718 11.0237 1.62377 11.1916 1.5566 11.3725C1.22402 12.2749 0.700767 14.5217 0.634684 14.8045C0.390934 16.0167 -0.213567 20.1713 2.24452 22.7778C3.80452 24.431 6.19002 25.042 9.32302 24.5978L10.7812 24.3898C17.7318 23.3899 21.2202 22.8883 24.2221 25.8242C24.7995 26.3886 25.391 26.9649 26.0064 27.525C25.3249 29.6678 24.4409 34.2417 28.0647 36.95C31.9582 39.875 31.9582 40.6669 31.9582 42.5833C31.9561 42.9598 32.1497 43.3103 32.4693 43.5092C32.789 43.708 33.189 43.7266 33.5258 43.5583C33.8096 43.411 36.2915 42.0287 36.2915 37.1667C36.2915 34.5071 38.274 32.2082 40.2316 30.3059L40.2641 30.2767C41.3256 29.548 42.2438 28.6299 42.9724 27.5683C43.7584 26.3294 44.3205 24.962 44.6332 23.5286C44.6972 23.3889 44.7305 23.237 44.7307 23.0833C44.8668 22.3727 44.9429 21.6519 44.9582 20.9286C44.969 20.2017 44.9528 19.4812 44.9138 18.7695C44.9146 18.763 44.915 18.7565 44.9149 18.75ZM34.1249 37.1667C34.1432 38.0677 34.0144 38.9656 33.7435 39.8252C33.2376 38.5587 32.0654 37.2468 29.3582 35.2156C27.2056 33.6036 27.3573 30.9234 27.822 29.0406C29.8517 30.6698 32.3695 31.5705 34.972 31.5983C35.3941 31.5952 35.8157 31.5706 36.2352 31.5247C34.9335 33.1238 34.1922 35.1058 34.1249 37.1667ZM41.1449 26.4135C40.3867 27.5499 39.3143 28.4412 38.0584 28.9788C36.0702 29.6189 33.9265 29.5869 31.9582 28.8878V27.4167C31.9582 26.8183 32.4432 26.3333 33.0415 26.3333H36.2915C36.8898 26.3333 37.3749 25.8483 37.3749 25.25C37.3749 24.6517 36.8898 24.1667 36.2915 24.1667H33.0415C31.2466 24.1667 29.7915 25.6217 29.7915 27.4167V27.7536C28.3365 26.7199 26.9785 25.5559 25.7344 24.2761C24.4767 23.0012 22.875 22.12 21.1249 21.74V20.9167C21.1249 20.3183 20.6398 19.8333 20.0415 19.8333C19.4432 19.8333 18.9582 20.3183 18.9582 20.9167V21.4757C16.1117 21.4814 13.2713 21.7391 10.4703 22.2459L9.01643 22.4528C8.36283 22.5491 7.70156 22.5832 7.04152 22.5547V22C7.04152 21.4017 6.55649 20.9167 5.95818 20.9167C5.35988 20.9167 4.87485 21.4017 4.87485 22V22.052C4.47925 21.865 4.12069 21.6081 3.81643 21.2937C3.19553 20.5754 2.79825 19.6912 2.67352 18.75H3.79152C5.58644 18.75 7.04152 17.2949 7.04152 15.5C7.04152 14.9017 6.55649 14.4167 5.95818 14.4167C5.35988 14.4167 4.87485 14.9017 4.87485 15.5C4.87485 16.0983 4.38983 16.5833 3.79152 16.5833H2.5771C2.60657 16.1399 2.6641 15.6989 2.74935 15.2627C2.89127 14.6474 3.29102 12.9877 3.54343 12.25H7.04152C7.63983 12.25 8.12485 11.765 8.12485 11.1667C8.12485 10.5683 7.63983 10.0833 7.04152 10.0833H4.53035C5.07966 9.05779 5.75951 8.10775 6.55293 7.2569C7.32004 6.48887 8.21956 5.8657 9.20818 5.4174V6.83332C9.20818 8.62825 10.6633 10.0833 12.4582 10.0833C13.0565 10.0833 13.5415 9.5983 13.5415 8.99999C13.5415 8.40168 13.0565 7.91666 12.4582 7.91666C11.8599 7.91666 11.3749 7.43163 11.3749 6.83332V4.56915C12.2291 4.30259 13.097 4.082 13.9749 3.90832C14.8979 3.72199 15.8425 3.54324 16.7915 3.37315V3.58332C16.7915 4.18163 17.2765 4.66665 17.8749 4.66665C18.4732 4.66665 18.9582 4.18163 18.9582 3.58332V3.0124C19.6797 2.90407 20.4023 2.8044 21.1249 2.72532V3.58332C21.1249 4.18163 21.6099 4.66665 22.2082 4.66665C22.8065 4.66665 23.2915 4.18163 23.2915 3.58332V2.54549C23.3598 2.54549 23.4291 2.53249 23.4963 2.52815C24.1658 2.49999 24.8169 2.49999 25.4582 2.52707V6.83332C25.4582 7.43163 25.9432 7.91666 26.5415 7.91666H28.7082C29.3065 7.91666 29.7915 7.43163 29.7915 6.83332C29.7915 6.23501 29.3065 5.74999 28.7082 5.74999H27.6249V2.76324C29.5203 3.08446 31.3532 3.70309 33.0556 4.59624C33.0556 4.62116 33.0415 4.64174 33.0415 4.66665V7.91666C33.0415 8.51496 33.5265 8.99999 34.1249 8.99999C34.7232 8.99999 35.2082 8.51496 35.2082 7.91666V5.84749C35.9189 6.30791 36.6382 6.81057 37.3749 7.37715V10.0833C37.3749 10.6816 36.8898 11.1667 36.2915 11.1667C35.6932 11.1667 35.2082 11.6517 35.2082 12.25C35.2082 12.8483 35.6932 13.3333 36.2915 13.3333C38.0864 13.3333 39.5415 11.8782 39.5415 10.0833V9.34124C40.6425 10.5495 41.4503 11.9953 41.9021 13.5662C42.2694 14.9085 42.5174 16.2807 42.6431 17.6667H40.6249C40.0265 17.6667 39.5415 18.1517 39.5415 18.75C39.5415 19.3483 40.0265 19.8333 40.6249 19.8333H42.7688C42.7764 20.1876 42.7937 20.5397 42.7883 20.8972C42.7829 21.2742 42.7417 21.6371 42.7005 22H40.6249C40.0265 22 39.5415 22.485 39.5415 23.0833C39.5415 23.6816 40.0265 24.1667 40.6249 24.1667H42.2109C41.945 24.9549 41.5872 25.709 41.1449 26.4135Z" fill="#2F80ED"/>
</svg>
