<svg width="60" height="65" viewBox="0 0 60 65" fill="none" xmlns="http://www.w3.org/2000/svg">
<path d="M59.2916 24.9892C59.3554 21.8846 58.9734 18.7868 58.1573 15.7907C57.0625 12.0667 54.7903 8.79779 51.6812 6.47399C45.5657 1.68241 39.8501 -0.303343 33.1681 0.0357404C29.6433 0.279844 26.141 0.780588 22.689 1.53399C17.8021 2.51657 14.252 4.23474 11.8351 6.78707C9.91974 8.82666 8.44079 11.2357 7.48875 13.8667C7.08521 15.0259 6.75664 16.2099 6.50508 17.4113L6.41842 17.7862C6.19024 18.63 5.88227 19.4501 5.49867 20.2356C5.2755 20.7361 5.05125 21.2366 4.85733 21.7522C4.60618 22.3244 4.50585 22.9514 4.56592 23.5733C4.78633 24.5411 5.3473 25.3973 6.1465 25.9859C6.67842 26.4734 7.02725 26.8147 7.0305 27.1267C6.98814 27.2883 6.92438 27.4435 6.84092 27.5882C5.54357 30.3236 3.95332 32.9102 2.09808 35.3026C1.32025 36.2527 0.505583 37.3609 0.671333 38.4865C0.908095 39.3407 1.47214 40.0671 2.24108 40.508C2.59954 40.7548 2.97742 40.9722 3.371 41.158C3.83792 41.3963 4.62117 41.795 4.671 42.0821C4.74121 42.4469 4.70007 42.8243 4.55292 43.1654C4.3915 43.5034 4.22792 43.7959 4.08167 44.0505C3.68408 44.7536 3.01783 45.9322 4.01992 46.7751C4.25392 46.9809 4.65475 47.2962 5.02092 47.5767C4.75036 48.0526 4.62884 48.5987 4.67208 49.1443C4.73088 49.5684 4.96165 49.9497 5.31017 50.1984C5.55283 50.3707 5.81175 50.5234 6.0685 50.6664C6.7055 51.0293 6.95358 51.1994 7.0435 51.5331C7.10195 51.9744 7.062 52.4231 6.9265 52.8472C6.86367 53.1321 6.803 53.4159 6.76508 53.6997C6.65531 54.6851 6.77965 55.6824 7.128 56.6107C7.68818 58.6696 9.76313 59.9287 11.8481 59.475C14.9414 58.7291 17.9922 57.8167 20.9871 56.7417C23.4224 58.1804 24.9618 62.5322 25.3627 64.1647C25.4814 64.6493 25.9157 64.9901 26.4146 64.9902L53.6062 64.9155C53.9492 64.9144 54.2714 64.751 54.4749 64.4749C54.6784 64.1988 54.7392 63.8427 54.6387 63.5148C54.3701 62.7754 53.9984 62.0777 53.5347 61.4423C53.2787 61.0748 53.0471 60.6908 52.8414 60.2929C52.353 59.2937 51.9437 58.2578 51.6172 57.1946C50.9989 55.102 50.5718 52.9576 50.3411 50.7877C49.9572 47.5483 50.4464 44.2651 51.7581 41.2782C52.5599 39.6244 53.5466 38.0667 54.6993 36.6351C55.3493 35.7543 56.0286 34.8443 56.6374 33.8834C58.347 31.2301 59.2675 28.1456 59.2916 24.9892ZM52.9606 35.3535C51.709 36.9161 50.6397 38.6164 49.7734 40.4213C48.3075 43.7623 47.7614 47.4345 48.1917 51.0575C48.4343 53.3559 48.8861 55.6273 49.5416 57.8435C49.9007 59.0111 50.3498 60.1492 50.8849 61.2473C51.1313 61.7319 51.4104 62.1992 51.7202 62.6459L51.7982 62.764L27.2336 62.8333C26.512 60.2627 25.2049 57.894 23.4148 55.913C23.6911 55.8166 23.9565 55.7267 24.1959 55.64C25.0171 55.3529 25.6378 55.1352 25.9477 55.0377C30.5919 53.5795 32.9146 51.4692 32.8517 48.7641C32.8166 48.175 32.3325 47.7131 31.7424 47.7057C31.4551 47.7125 31.1822 47.8332 30.9839 48.0413C30.7856 48.2493 30.6781 48.5277 30.6851 48.815C30.7111 49.9308 29.7978 51.558 25.2966 52.9707C24.9716 53.0725 24.3313 53.2957 23.4787 53.5957C22.7063 53.8666 21.7584 54.1981 20.7217 54.5523C17.67 55.656 14.5611 56.5941 11.4082 57.3625C10.3932 57.5581 9.4053 56.9158 9.17225 55.9087C8.93831 55.3005 8.84893 54.6463 8.91117 53.9977C8.94042 53.7734 8.99133 53.5492 9.04117 53.3238C9.26344 52.572 9.29841 51.7772 9.143 51.0087C8.83201 50.0141 8.10246 49.2046 7.14533 48.7922L6.9135 48.659C7.02951 48.4224 7.16849 48.1978 7.32842 47.9884C7.50864 47.7583 7.5882 47.465 7.54903 47.1754C7.50986 46.8857 7.35529 46.6241 7.12042 46.4501C6.86042 46.2572 6.24075 45.7936 5.79658 45.4372C5.85183 45.3364 5.91358 45.2205 5.971 45.1241C6.13783 44.8305 6.32742 44.4914 6.51267 44.1047C6.85915 43.3471 6.96101 42.5004 6.80408 41.6823C6.55167 40.3531 5.28742 39.7052 4.35467 39.2329C4.04019 39.0839 3.7387 38.9088 3.45333 38.7097C3.22879 38.5534 3.01589 38.3811 2.81633 38.194C2.81633 38.0315 2.98967 37.635 3.82275 36.6177C5.75839 34.122 7.41799 31.4239 8.7725 28.5707C9.03333 28.1241 9.17925 27.6197 9.19717 27.1028C9.08673 26.0123 8.50746 25.0238 7.61008 24.3945C7.17675 23.9937 6.75858 23.6145 6.712 23.2808C6.7163 23.0187 6.77534 22.7604 6.88533 22.5225C7.063 22.0523 7.26992 21.5908 7.47683 21.1293C7.91846 20.218 8.27074 19.266 8.52875 18.2867L8.6165 17.9086C8.84784 16.7965 9.15035 15.7005 9.52217 14.6272C10.3713 12.2677 11.6937 10.1067 13.4081 8.27666C15.5065 6.06666 18.6828 4.54999 23.1158 3.65841C26.4634 2.92579 29.86 2.43844 33.2786 2.20024C39.4081 1.87524 44.6698 3.73207 50.3422 8.18241C53.0984 10.2145 55.1108 13.0959 56.0697 16.3832C56.8298 19.1763 57.1851 22.0639 57.1249 24.9578C57.1059 27.7176 56.3022 30.415 54.8077 32.7351C54.24 33.6256 53.5878 34.5042 52.9573 35.3535H52.9606Z" fill="#2F80ED"/>
</svg>
