<svg width="91" height="73" viewBox="0 0 91 73" fill="none" xmlns="http://www.w3.org/2000/svg">
<path d="M89.667 70.3265H63.2484C68.4104 67.1488 71.8595 61.446 71.8595 54.9517V54.0415H72.8267C77.102 54.0415 80.5803 50.5632 80.5803 46.2879V44.062C80.5803 40.9225 78.0261 38.369 74.8873 38.369C73.775 38.369 72.7371 38.6904 71.8595 39.2438V37.2658C71.8595 35.3662 70.7674 33.6708 69.0595 32.8787C69.0408 32.8641 69.0227 32.8481 69.0033 32.8342L48.0174 17.4428L44.0913 13.7493C43.79 13.466 43.4686 13.205 43.1325 12.9634C43.7844 12.5614 44.3572 12.0157 44.8023 11.3457L46.7171 8.46449C47.3086 7.57234 47.621 6.53857 47.621 5.47424C47.621 3.65802 46.7185 1.97232 45.2063 0.965623C42.7215 -0.68328 39.3577 -0.0049733 37.7075 2.47775L35.7933 5.35761C35.1296 6.35667 34.8373 7.51194 34.8991 8.64639C34.2757 8.58043 33.639 8.63736 33.0301 8.82273C31.8263 9.1907 30.8112 10.0342 30.2294 11.1479L29.8698 11.6602C29.4463 12.2622 29.5914 13.0939 30.194 13.5174C30.796 13.9409 31.6277 13.7958 32.0512 13.1932L32.4657 12.6038C32.5053 12.5475 32.5407 12.4878 32.5705 12.426C32.8232 11.9136 33.2627 11.5401 33.8084 11.3735C34.3541 11.2069 34.9276 11.2714 35.4226 11.5554L36.5765 12.217C36.5834 12.2212 36.5904 12.2247 36.5966 12.2288L41.0025 14.7553C41.4579 15.0171 41.8821 15.3316 42.2647 15.6919L45.591 18.8203L43.9934 22.8637L39.3904 20.4039L37.6436 19.3188C37.0173 18.93 36.196 19.1223 35.8072 19.7471C35.4191 20.3727 35.6107 21.1947 36.2363 21.5835L36.9868 22.0494L32.5115 30.9548L22.6549 26.5615L28.5868 18.1225C29.0103 17.5199 28.8652 16.6889 28.2625 16.2654C27.6606 15.8419 26.8289 15.987 26.4054 16.5889L19.5424 26.3532C19.5362 26.3629 19.5306 26.3726 19.5244 26.3823C19.5077 26.4073 19.4911 26.433 19.4765 26.4594C19.4661 26.4768 19.4571 26.4941 19.4487 26.5122C19.4411 26.526 19.4334 26.5385 19.4265 26.5531L18.6281 28.2527C17.4568 30.7445 17.4305 33.6153 18.5545 36.1293C19.0641 37.2686 19.7875 38.2794 20.6706 39.1188C20.4776 39.611 20.495 40.172 20.7435 40.6643L23.2527 45.6006L13.9896 64.6056C13.1031 66.4239 13.2134 68.5345 14.2861 70.2508C14.3021 70.2765 14.3201 70.3008 14.3368 70.3265H1.33301C0.597076 70.3265 0 70.9228 0 71.6595C0 72.3954 0.597076 72.9925 1.33301 72.9925H89.667C90.4029 72.9925 91 72.3954 91 71.6595C91 70.9228 90.4029 70.3265 89.667 70.3265ZM71.8602 44.062C71.8602 42.393 73.2175 41.035 74.8866 41.035C76.5556 41.035 77.9136 42.393 77.9136 44.062V46.2879C77.9136 49.0928 75.6315 51.3748 72.8267 51.3748H71.8602V44.062ZM38.0143 6.83363L39.9277 3.95309C40.4561 3.15953 41.3288 2.72978 42.2175 2.72978C42.7382 2.72978 43.2644 2.87766 43.7296 3.18591C44.4968 3.69621 44.9543 4.55155 44.9543 5.47424C44.9543 6.01231 44.7953 6.53718 44.4954 6.98915L42.5813 9.8697C41.9932 10.7549 40.9685 11.2117 39.9298 11.0673L38.1344 10.037C37.4131 9.11363 37.3562 7.82367 38.0143 6.83363ZM44.1989 68.311H48.3562L50.4793 70.3258H44.1989V68.311ZM67.7467 37.0735C68.25 37.0464 68.7103 36.8673 69.0804 36.5736C69.1533 36.793 69.1935 37.0256 69.1935 37.2658V54.9517C69.1935 63.2546 62.5778 70.0397 54.3423 70.316L50.1509 66.3379L49.2262 59.0813H50.144C54.9873 59.0813 59.2765 56.6777 61.8911 53.0036V53.9263C61.8911 54.6622 62.4882 55.2593 63.2241 55.2593C63.9608 55.2593 64.5572 54.6622 64.5572 53.9263V44.6674C64.5572 44.6661 64.5572 44.6647 64.5572 44.664V37.2658C64.5572 37.1367 64.5696 37.0089 64.5919 36.8839C65.2021 37.0478 65.8325 37.1325 66.472 37.1325C66.6053 37.1325 66.7386 37.129 66.8726 37.1214L67.7467 37.0735ZM64.0712 33.7916C64.0531 33.7805 64.0351 33.7701 64.0163 33.7597L46.3567 24.1377L47.7675 20.5664L66.7108 34.4595C65.7805 34.506 64.8682 34.2762 64.0712 33.7916ZM21.0407 29.3865L21.2837 28.8706L22.7875 29.5427L32.5795 33.9041L32.5886 33.9083L43.815 38.9084C43.915 38.9536 43.9858 39.0487 43.9997 39.1577L45.3132 49.4649C45.4063 50.1953 46.0728 50.7125 46.8038 50.6188C47.5342 50.5257 48.0515 49.8578 47.9577 49.1275L46.6449 38.8203C46.5136 37.7934 45.8451 36.8943 44.8995 36.4729L34.9498 32.0414L39.3022 23.3796L44.0517 25.9186L62.1272 35.7668C61.9717 36.2459 61.8911 36.7499 61.8911 37.2658V44.6668C61.8911 51.1443 56.6216 56.4146 50.1447 56.4146H48.8867L48.6041 54.1985C48.5111 53.4681 47.8446 52.9515 47.1128 53.0439C46.3824 53.1369 45.8659 53.8048 45.9589 54.5352L46.3838 57.8698C46.3859 57.8892 46.3887 57.908 46.3908 57.9274L47.3745 65.6443H43.8469L37.0625 43.8218C36.7723 42.888 36.0412 42.1556 35.1081 41.8619L25.8381 38.9501C25.8319 38.948 25.8263 38.9466 25.8208 38.9445L25.2369 38.7703C23.3436 38.2038 21.7947 36.8444 20.9879 35.0406C20.1812 33.2362 20.2006 31.1756 21.0407 29.3865ZM31.8158 48.0541L32.8684 43.953L34.309 44.4064C34.4083 44.437 34.4853 44.5147 34.5166 44.614L38.3011 56.7867C38.0018 56.8791 37.7068 56.9894 37.4173 57.1179L28.9728 60.8892L31.8158 48.0541ZM24.4732 41.3245L25.048 41.4967L30.3211 43.1532L29.5962 45.9762L25.6944 44.5203L23.9893 41.1655C24.1483 41.2232 24.31 41.2759 24.4732 41.3245ZM16.3863 65.7741L25.4098 47.2606L28.9665 48.5873L25.7972 62.8984C25.6882 63.39 25.8652 63.9009 26.2561 64.2196C26.6463 64.5383 27.1829 64.6091 27.6426 64.4036L38.5017 59.5534C38.6954 59.4673 38.894 59.3979 39.0939 59.3361L41.5329 67.18V70.3258H19.2321C18.1331 70.3258 17.1292 69.769 16.5473 68.8372C15.9649 67.9062 15.9051 66.7614 16.3863 65.7741Z" fill="#2F80ED"/>
</svg>
