<svg width="70" height="70" viewBox="0 0 70 70" fill="none" xmlns="http://www.w3.org/2000/svg">
<path d="M55.6469 0.651203L45.1966 10.2307C43.0289 12.2187 40.2144 13.3125 37.2734 13.3125C33.6047 13.3125 30.3631 15.7576 29.3126 19.2188C25.899 20.2561 23.4062 23.4311 23.4062 27.1797V30.317C23.4062 31.8868 22.7362 33.3889 21.5702 34.4394L14.579 40.7329C13.5583 41.6504 12.2404 42.1562 10.8681 42.1562H8.42969C3.84131 42.1562 0.109375 45.8882 0.109375 50.4766C0.109375 55.0649 3.84131 58.7969 8.52509 58.7969C9.24064 58.7969 9.91292 59.0753 10.4188 59.5812C10.9247 60.0871 11.2031 60.7605 11.2031 61.5703C11.2031 66.1587 14.9351 69.8906 19.5234 69.8906C24.1118 69.8906 27.8438 66.1587 27.8438 61.5703V58.433C27.8438 56.8632 28.5138 55.3611 29.6798 54.3106L36.671 48.0171C37.6917 47.0996 39.0096 46.5937 40.3819 46.5937H42.8203C46.5689 46.5937 49.7428 44.1021 50.7812 40.6874C54.2413 39.6368 56.6875 36.3953 56.6875 32.7266V32.3017C56.6875 29.0057 58.0864 25.844 60.5248 23.6275L69.351 15.6034L55.6469 0.651203ZM42.8203 44.375H40.3819C38.4605 44.375 36.6156 45.0828 35.1867 46.3685L28.1954 52.662C26.5624 54.1319 25.625 56.2353 25.625 58.433V61.5703C25.625 64.9339 22.8882 67.6719 19.5234 67.6719C16.1587 67.6719 13.4219 64.9339 13.4219 61.4749C13.4219 60.1669 12.9127 58.9378 11.9886 58.0125C11.0645 57.0873 9.83416 56.5781 8.42969 56.5781C5.06495 56.5781 2.32812 53.8402 2.32812 50.4766C2.32812 47.1129 5.06495 44.375 8.42969 44.375H10.8681C12.7895 44.375 14.6344 43.6672 16.0633 42.3814L23.0546 36.088C24.6876 34.618 25.625 32.5147 25.625 30.317V27.1797C25.625 23.8161 28.3618 21.0781 31.7266 21.0781C35.0913 21.0781 37.8281 23.8161 37.8281 27.2751C37.8281 28.583 38.3373 29.8122 39.2614 30.7374C40.1855 31.6627 41.4158 32.1719 42.8203 32.1719C46.185 32.1719 48.9219 34.9098 48.9219 38.2734C48.9219 41.6371 46.185 44.375 42.8203 44.375ZM59.0327 21.9845C56.1328 24.6215 54.4688 28.3822 54.4688 32.3017V32.7266C54.4688 35.0452 53.1253 37.113 51.134 38.1381C51.0607 33.6129 47.3621 29.9531 42.7249 29.9531C42.0094 29.9531 41.3371 29.6747 40.8312 29.1688C40.3253 28.6629 40.0469 27.9895 40.0469 27.1797C40.0469 22.6379 36.387 18.9404 31.8619 18.866C32.8881 16.8747 34.9548 15.5312 37.2734 15.5312C40.7713 15.5312 44.1172 14.23 46.6954 11.8659L55.5093 3.7863L66.2104 15.4591L59.0327 21.9845Z" fill="#2F80ED"/>
</svg>
